<?xml version="1.0" encoding="UTF-8" standalone="no"?>
<svg
   xmlns:dc="http://purl.org/dc/elements/1.1/"
   xmlns:cc="http://creativecommons.org/ns#"
   xmlns:rdf="http://www.w3.org/1999/02/22-rdf-syntax-ns#"
   xmlns:svg="http://www.w3.org/2000/svg"
   xmlns="http://www.w3.org/2000/svg"
   xmlns:sodipodi="http://sodipodi.sourceforge.net/DTD/sodipodi-0.dtd"
   xmlns:inkscape="http://www.inkscape.org/namespaces/inkscape"
   version="1.0"
   width="750"
   height="500"
   viewBox="0 0 675 450"
   xml:space="preserve"
   id="svg1336"
   sodipodi:version="0.32"
   inkscape:version="0.46"
   sodipodi:docname="Flag_of_Barcelona_(province).svg"
   sodipodi:docbase="F:\Guillermo\Imachens\wiki"
   inkscape:output_extension="org.inkscape.output.svg.inkscape"><metadata
   id="metadata1349"><rdf:RDF><cc:Work
       rdf:about=""><dc:format>image/svg+xml</dc:format><dc:type
         rdf:resource="http://purl.org/dc/dcmitype/StillImage" /></cc:Work></rdf:RDF></metadata><defs
   id="defs1347"><inkscape:perspective
     sodipodi:type="inkscape:persp3d"
     inkscape:vp_x="0 : 225 : 1"
     inkscape:vp_y="0 : 1000 : 0"
     inkscape:vp_z="675 : 225 : 1"
     inkscape:persp3d-origin="337.5 : 150 : 1"
     id="perspective13" /></defs><sodipodi:namedview
   inkscape:window-height="744"
   inkscape:window-width="1280"
   inkscape:pageshadow="2"
   inkscape:pageopacity="0.0"
   borderopacity="1.0"
   bordercolor="#666666"
   pagecolor="#ffffff"
   id="base"
   showguides="true"
   inkscape:guide-bbox="true"
   inkscape:zoom="0.84906002"
   inkscape:cx="410.26277"
   inkscape:cy="306.01172"
   inkscape:window-x="-4"
   inkscape:window-y="-4"
   inkscape:current-layer="svg1336"
   showgrid="false" />








<rect
   height="450"
   width="674.99994"
   y="2.3559615e-08"
   x="3.6716305e-05"
   id="rect2396"
   style="fill:#fcdd09;fill-opacity:1" /><path
   style="fill:#da121a;fill-opacity:1"
   d="M -3.6692871e-14,50.006249 L -3.6692871e-14,100.0125 L 674.99996,100.0125 L 674.99996,50.006249 L -3.6692871e-14,50.006249 z M -3.6692871e-14,149.99063 L -3.6692871e-14,199.99688 L 674.99996,199.99688 L 674.99996,149.99063 L -3.6692871e-14,149.99063 z M -3.6692871e-14,250.00313 L -3.6692871e-14,300.00938 L 674.99996,300.00938 L 674.99996,250.00313 L -3.6692871e-14,250.00313 z M -3.6692871e-14,349.9875 L -3.6692871e-14,399.99375 L 674.99996,399.99375 L 674.99996,349.9875 L -3.6692871e-14,349.9875 z"
   id="rect2401" /><path
   style="fill:#ffffff;fill-opacity:1;fill-rule:evenodd;stroke:none;stroke-width:4.49999952000000030;stroke-linecap:butt;stroke-linejoin:miter;stroke-miterlimit:4;stroke-dasharray:none;stroke-opacity:1"
   d="M 337.15586,100.07769 L 212.57771,223.96758 L 336.46758,349.9223 L 462.42229,223.96758 L 337.15586,100.07769 z"
   id="path3660" /><path
   style="fill:#da121a;fill-opacity:1;fill-rule:evenodd;stroke:#da121a;stroke-width:0.65318686;stroke-linecap:round;stroke-linejoin:round;marker:none;marker-start:none;marker-mid:none;marker-end:none;stroke-miterlimit:4;stroke-dasharray:none;stroke-dashoffset:0;stroke-opacity:1;visibility:visible;display:inline;overflow:visible;enable-background:accumulate"
   d="M 337.36313,100.60514 L 323.08959,114.87868 L 323.08959,126.53214 C 323.08963,126.53215 321.87638,127.37858 320.07847,128.40921 C 319.84115,128.53667 319.66789,128.66791 319.41367,128.80026 C 319.393,128.81182 319.35628,128.78871 319.33546,128.80026 C 318.19392,129.39292 316.90348,130.01094 315.58132,130.56001 C 314.25917,131.10905 312.88002,131.59525 311.63166,131.88961 L 311.63166,132.08514 C 310.83582,132.27743 310.08781,132.39798 309.40264,132.39798 C 308.28277,132.398 307.11744,132.23571 305.96135,132.00692 L 295.20731,142.76095 L 295.20731,159.41993 C 295.18143,159.73553 295.01178,159.99935 295.01178,160.31936 C 295.01182,160.6452 295.18143,160.94081 295.20731,161.2579 L 295.20731,161.41432 L 295.24642,161.41432 C 295.32729,162.24615 295.51523,163.05809 295.75479,163.83887 C 295.99439,164.61962 296.30968,165.39237 296.69332,166.10699 C 297.07702,166.82163 297.50979,167.50715 298.02291,168.14048 C 298.53603,168.77378 299.11557,169.36331 299.74356,169.90023 C 300.37154,170.43711 301.04878,170.92176 301.77705,171.34714 C 302.50532,171.77248 303.30947,172.14339 304.12339,172.44209 C 304.9373,172.74079 305.7803,172.94996 306.66525,173.10689 C 307.55016,173.2638 308.46125,173.34152 309.40264,173.34152 C 310.3982,173.34156 311.35788,173.24111 312.29645,173.06778 C 313.23501,172.89446 314.13244,172.65404 314.99473,172.32478 C 315.85708,171.99553 316.69163,171.6194 317.45839,171.15161 C 318.22517,170.68384 318.95725,170.1372 319.6092,169.54828 C 320.26119,168.95937 320.85107,168.28564 321.36895,167.593 C 321.88681,166.90039 322.33402,166.18204 322.69853,165.40309 C 323.06305,164.62416 323.32787,163.82641 323.51975,162.97854 C 323.71161,162.13065 323.7935,161.21874 323.7935,160.31936 C 323.79348,159.74216 323.56151,159.27569 323.48064,158.71603 L 323.48064,131.92871 C 323.48063,131.92876 324.52202,131.27385 326.02251,130.40359 C 326.21452,130.29222 326.36216,130.20833 326.56999,130.09075 C 328.12204,129.23694 330.05305,128.25884 332.00566,127.47067 C 332.98193,127.07658 333.97299,126.69976 334.89948,126.45393 C 335.82597,126.20812 336.70376,126.07259 337.48044,126.06287 C 337.74336,126.06535 337.9961,126.08624 338.26256,126.10198 C 339.44504,126.17176 340.67123,126.38008 341.86027,126.68856 C 343.04929,126.99701 344.20597,127.38963 345.30157,127.90084 C 346.39712,128.41204 347.41049,129.02167 348.31269,129.69969 C 349.2149,130.37769 350.01108,131.11979 350.61992,131.92871 L 350.61992,159.41993 C 350.59402,159.73553 350.42439,159.99935 350.42439,160.31936 C 350.4244,160.6452 350.59404,160.94081 350.61992,161.2579 L 350.61992,161.41432 L 350.69813,161.41432 C 350.7904,162.36147 350.9855,163.27895 351.28472,164.15171 C 351.58389,165.02444 351.97399,165.87581 352.45788,166.65447 C 352.94181,167.43314 353.53219,168.17956 354.17853,168.84438 C 354.82485,169.50918 355.54281,170.0729 356.32934,170.60413 C 356.40418,170.6579 356.48793,170.70816 356.56397,170.76056 C 356.58034,170.77113 356.58666,170.78912 356.60308,170.79966 C 357.18931,171.1992 357.82828,171.58157 358.48015,171.89461 C 359.132,172.20769 359.80448,172.45909 360.51364,172.67672 C 361.22275,172.89436 361.94546,173.07181 362.70355,173.1851 C 363.46162,173.29836 364.2512,173.34152 365.04988,173.34152 C 366.04523,173.34156 367.00524,173.24111 367.9437,173.06778 C 368.88212,172.89446 369.81883,172.65404 370.68108,172.32478 C 371.54337,171.99553 372.33885,171.6194 373.10563,171.15161 C 373.87242,170.68384 374.60445,170.1372 375.25644,169.54828 C 375.90846,168.95937 376.49826,168.28564 377.01619,167.593 C 377.53411,166.90039 377.98121,166.18204 378.34578,165.40309 C 378.71035,164.62416 378.97506,163.82641 379.167,162.97854 C 379.35896,162.13065 379.47985,161.21874 379.47985,160.31936 C 379.47983,159.74216 379.20876,159.27569 379.12789,158.71603 L 379.12789,142.3699 L 368.49118,131.73318 C 368.35683,131.77595 368.19395,131.81133 368.06101,131.8505 C 367.36871,132.05451 366.69816,132.23591 366.06663,132.31977 L 366.06663,132.24155 C 365.75851,132.26803 365.47026,132.36956 365.1672,132.39798 C 365.13593,132.39847 365.08088,132.39798 365.04988,132.39798 C 364.7392,132.39802 364.42741,132.37732 364.11135,132.35887 C 362.92613,132.28969 361.70799,132.0801 360.51364,131.77228 C 359.31925,131.46446 358.13445,131.07095 357.03324,130.56001 C 355.93207,130.04911 354.9279,129.43969 354.02211,128.76115 C 353.11629,128.08261 352.32295,127.34276 351.71487,126.53214 L 351.67577,114.91778 L 337.36313,100.60514 z M 281.91142,166.10699 C 280.97004,166.10696 280.05986,166.18426 279.17402,166.34162 C 278.28815,166.49901 277.40848,166.74607 276.59305,167.04553 C 275.77765,167.34501 275.01598,167.71417 274.28582,168.14048 C 273.55568,168.56677 272.88235,169.04947 272.25233,169.58739 C 271.62226,170.12529 271.04672,170.71287 270.53169,171.34714 C 270.01663,171.98139 269.54817,172.66527 269.163,173.38063 C 268.77783,174.09597 268.46491,174.82843 268.22446,175.60964 C 267.98402,176.39083 267.83607,177.20238 267.75519,178.03419 L 267.71609,178.03419 L 267.71609,178.22972 C 267.69022,178.54972 267.48145,178.80476 267.48145,179.12915 C 267.48145,179.2221 267.53715,179.31614 267.55966,179.40288 C 267.53715,179.4894 267.48145,179.58288 267.48145,179.67662 C 267.48147,179.99812 267.69022,180.25895 267.71609,180.57605 L 267.71609,207.55891 C 267.7161,207.55893 265.50363,208.98696 262.67147,210.45272 C 261.25539,211.18565 259.66283,211.93654 258.13521,212.48621 C 257.37145,212.76101 256.62331,212.9907 255.9062,213.15101 C 255.18905,213.31133 254.53253,213.38563 253.91181,213.38563 C 252.66959,213.38563 251.3617,213.23481 250.07947,212.95548 C 248.79722,212.67617 247.52203,212.29893 246.32533,211.78231 C 245.12867,211.26571 244.02609,210.6171 243.04046,209.90524 C 242.54762,209.5493 242.04917,209.16804 241.63266,208.77118 C 241.21616,208.37431 240.86221,207.99143 240.53771,207.55891 L 240.4986,197.46967 L 229.94009,208.02817 C 230.02915,208.04642 230.12487,208.04775 230.21383,208.06728 C 231.48971,208.34721 232.74001,208.76247 233.92886,209.27955 C 235.11771,209.79662 236.23384,210.406 237.21374,211.11751 C 237.7037,211.47327 238.16758,211.85522 238.58243,212.25158 C 238.99726,212.64794 239.39198,213.07135 239.71649,213.50296 L 239.71649,240.4467 C 239.69056,240.76235 239.48186,241.02466 239.48186,241.34613 C 239.48187,241.43943 239.49861,241.53337 239.52096,241.61987 C 239.49632,241.71138 239.48186,241.79535 239.48186,241.89361 C 239.48187,242.21797 239.689,242.5136 239.71649,242.83214 L 239.71649,242.98856 C 239.79756,243.82036 239.98433,244.6319 240.22486,245.41311 C 240.46541,246.19434 240.77824,246.92675 241.16339,247.64213 C 241.54857,248.35748 241.97803,249.04136 242.49299,249.67562 C 243.00793,250.3099 243.58369,250.89745 244.21363,251.43537 C 244.84353,251.97329 245.55615,252.45595 246.28623,252.88228 C 247.01634,253.3086 247.77804,253.67777 248.59345,253.97723 C 249.40889,254.27673 250.24942,254.52377 251.13532,254.68113 C 252.02123,254.83846 252.97023,254.91577 253.91181,254.91577 C 254.90721,254.91578 255.86715,254.81539 256.80563,254.64203 C 257.74409,254.46865 258.64165,254.22835 259.50391,253.89902 C 260.36617,253.56968 261.20078,253.15459 261.96757,252.68675 C 262.73431,252.21888 263.42726,251.71148 264.07926,251.12253 C 264.73123,250.53355 265.32108,249.8599 265.83902,249.16725 C 266.35696,248.47461 266.80403,247.75625 267.16861,246.97733 C 267.5332,246.19842 267.83699,245.40055 268.02893,244.55278 C 268.22086,243.70504 268.30267,242.79281 268.30267,241.89361 C 268.30269,241.86 268.30445,241.84853 268.30267,241.81539 C 268.30862,241.66143 268.30267,241.50142 268.30267,241.34613 C 268.30269,240.76746 268.0316,240.26187 267.95072,239.7037 L 267.95072,213.50296 C 267.95071,213.50293 270.20517,212.03581 273.07355,210.57003 C 274.50774,209.83716 276.10742,209.08622 277.64891,208.53655 C 278.41961,208.26172 279.15659,208.03206 279.87793,207.87175 C 280.5993,207.71141 281.29029,207.63711 281.91142,207.63711 C 283.15244,207.6371 284.42888,207.78737 285.70466,208.06728 C 286.98046,208.34721 288.27003,208.76247 289.45879,209.27955 C 290.64751,209.79662 291.72458,210.406 292.70455,211.11751 C 293.19453,211.47327 293.6974,211.85522 294.11236,212.25158 C 294.52735,212.64794 294.8826,213.07135 295.20731,213.50296 L 295.20731,240.4467 C 295.18143,240.76235 295.01178,241.02466 295.01178,241.34613 C 295.01182,241.43943 295.03223,241.53337 295.05089,241.61987 C 295.03046,241.71138 295.01178,241.79535 295.01178,241.89361 C 295.01181,242.21797 295.18143,242.5136 295.20731,242.83214 L 295.20731,242.98856 L 295.24642,242.98856 C 295.34913,244.03918 295.64484,245.05348 296.02853,245.99969 C 296.41225,246.94593 296.9004,247.84609 297.47543,248.69798 C 297.52526,248.67926 297.58201,248.63858 297.63186,248.61977 C 298.26351,249.48618 298.98701,250.26448 299.82177,250.9661 C 300.65651,251.6677 301.59425,252.30176 302.59827,252.80406 C 303.60234,253.30639 304.70451,253.6697 305.84403,253.93813 C 306.98356,254.20655 308.16141,254.36829 309.40264,254.36829 C 310.3982,254.36832 311.35788,254.26788 312.29645,254.09455 C 313.23501,253.92123 314.13244,253.68081 314.99473,253.35155 C 315.85708,253.0223 316.69163,252.60707 317.45839,252.13927 C 318.22517,251.67148 318.95725,251.12486 319.6092,250.53594 C 320.26119,249.94702 320.85107,249.31242 321.36895,248.61977 C 321.88681,247.92715 322.33402,247.16971 322.69853,246.39075 C 323.06305,245.61179 323.32787,244.81408 323.51975,243.9662 C 323.71161,243.11836 323.7935,242.24552 323.7935,241.34613 C 323.79348,240.76746 323.56151,240.26187 323.48064,239.7037 L 323.48064,234.81549 L 323.48064,213.50296 C 323.48063,213.50293 324.21631,213.04312 325.35772,212.36889 C 326.49912,211.69471 328.03994,210.80126 329.73754,209.98345 C 329.75973,210.01515 329.79354,210.02997 329.81576,210.06166 C 331.13822,209.43498 332.5174,208.83243 333.84363,208.38012 C 334.50673,208.15395 335.14192,207.96466 335.75981,207.83264 C 336.37765,207.70063 336.9777,207.64131 337.51956,207.63711 C 337.67664,207.63898 337.8306,207.63038 337.98881,207.63711 C 338.80692,207.67199 339.6227,207.79328 340.45247,207.94997 C 341.28222,208.1066 342.10613,208.31088 342.91612,208.57565 C 343.72612,208.84038 344.54286,209.15507 345.30157,209.51419 C 346.06031,209.87334 346.77643,210.28673 347.45237,210.72646 C 347.4862,210.67917 347.53586,210.61737 347.56969,210.57003 C 348.17955,210.95464 348.73539,211.38139 349.25123,211.82141 C 349.76703,212.26143 350.2184,212.69879 350.61992,213.19011 L 350.61992,240.4467 C 350.59402,240.76235 350.42439,241.02466 350.42439,241.34613 C 350.4244,241.67049 350.59404,241.92701 350.61992,242.24556 L 350.61992,242.44109 L 350.69813,242.44109 C 350.77727,243.25518 350.93596,244.06091 351.1674,244.82652 C 351.39881,245.59212 351.69683,246.31356 352.06683,247.01644 C 352.43684,247.7193 352.86248,248.38495 353.35731,249.01082 C 353.85215,249.63667 354.4329,250.23596 355.03886,250.77057 C 355.64479,251.30519 356.29077,251.78839 356.99414,252.21748 C 357.69753,252.64658 358.43609,253.00315 359.22315,253.31243 C 360.01021,253.62174 360.82979,253.88019 361.6868,254.05544 C 362.54386,254.23072 363.4327,254.34134 364.34598,254.36829 C 364.50331,254.37297 364.65653,254.36829 364.81525,254.36829 C 364.8916,254.36942 364.97324,254.36829 365.04988,254.36829 C 365.73311,254.36832 366.42568,254.33382 367.08337,254.25097 C 367.74106,254.16813 368.37362,254.02004 368.99955,253.85992 C 370.25144,253.53963 371.43132,253.08692 372.51905,252.49122 C 373.60678,251.8955 374.61699,251.16671 375.49108,250.34042 C 376.36512,249.51414 377.10919,248.57604 377.72009,247.56391 C 377.76963,247.58384 377.82696,247.62222 377.87651,247.64213 C 378.36174,246.76683 378.76836,245.85819 379.04968,244.90474 C 379.33103,243.9513 379.47985,242.93984 379.47985,241.89361 C 379.47983,241.86 379.4425,241.84853 379.44074,241.81539 C 379.44667,241.66143 379.47985,241.50142 379.47985,241.34613 C 379.47983,240.76746 379.20876,240.26187 379.12789,239.7037 L 379.12789,213.50296 C 379.12793,213.50293 381.32447,212.03581 384.17252,210.57003 C 385.59652,209.83716 387.17491,209.08622 388.70876,208.53655 C 389.47571,208.26172 390.25778,208.03206 390.97689,207.87175 C 391.69599,207.71141 392.38926,207.63711 393.01037,207.63711 C 394.25144,207.6371 395.52772,207.78737 396.80361,208.06728 C 398.0795,208.34721 399.32978,208.76247 400.51865,209.27955 C 401.70751,209.79662 402.82361,210.406 403.80351,211.11751 C 404.29348,211.47327 404.75735,211.85522 405.17221,212.25158 C 405.58703,212.64794 405.94266,213.07135 406.26717,213.50296 L 406.26717,240.4467 C 406.24124,240.76235 406.07164,241.02466 406.07164,241.34613 C 406.07165,241.43943 406.08838,241.53337 406.11075,241.61987 C 406.08612,241.71138 406.07164,241.79535 406.07164,241.89361 C 406.07165,242.21797 406.23966,242.5136 406.26717,242.83214 L 406.26717,242.98856 L 406.30627,242.98856 C 406.38735,243.82036 406.57413,244.6319 406.81464,245.41311 C 407.0552,246.19434 407.32893,246.92675 407.71407,247.64213 C 408.09925,248.35748 408.56782,249.04136 409.08276,249.67562 C 409.59772,250.3099 410.17348,250.89745 410.80341,251.43537 C 411.43333,251.97329 412.14593,252.45595 412.87601,252.88228 C 413.60606,253.3086 414.36784,253.67777 415.18324,253.97723 C 415.99869,254.27673 416.8392,254.52377 417.7251,254.68113 C 418.611,254.83846 419.5209,254.91577 420.46249,254.91577 C 421.45789,254.91578 422.45695,254.81539 423.39541,254.64203 C 424.33387,254.46865 425.23145,254.22835 426.0937,253.89902 C 426.95594,253.56968 427.79056,253.15459 428.55734,252.68675 C 429.3241,252.21888 430.01706,251.71148 430.66905,251.12253 C 431.32105,250.53355 431.91087,249.8599 432.4288,249.16725 C 432.94675,248.47461 433.39382,247.75625 433.75839,246.97733 C 434.12301,246.19842 434.38767,245.40055 434.57961,244.55278 C 434.77154,243.70504 434.89246,242.79281 434.89246,241.89361 C 434.89248,241.86 434.89423,241.84853 434.89246,241.81539 C 434.89841,241.66143 434.89246,241.50142 434.89246,241.34613 C 434.89249,240.76746 434.62138,240.26187 434.5405,239.7037 L 434.5405,213.50296 C 434.5405,213.50293 436.79496,212.03581 439.66334,210.57003 C 441.09752,209.83716 442.69721,209.08622 444.23868,208.53655 C 444.52311,208.43512 444.78,208.38971 445.05991,208.30191 L 434.30587,197.54788 L 434.30587,207.55891 C 434.30589,207.55893 432.09342,208.98696 429.26125,210.45272 C 427.84518,211.18565 426.25259,211.93654 424.725,212.48621 C 423.96124,212.76101 423.2131,212.9907 422.49598,213.15101 C 421.77885,213.31133 421.08321,213.38563 420.46249,213.38563 C 419.22027,213.38563 417.95149,213.23481 416.66925,212.95548 C 415.387,212.67617 414.11181,212.29893 412.91512,211.78231 C 411.71845,211.26571 410.57677,210.6171 409.59114,209.90524 C 409.0983,209.5493 408.63896,209.16804 408.22245,208.77118 C 407.80593,208.37431 407.452,207.99143 407.12749,207.55891 L 407.04928,181.31906 C 407.13292,180.76681 407.40123,180.24855 407.40123,179.67662 C 407.40124,179.5267 407.36766,179.39516 407.36213,179.24647 C 407.3639,179.21342 407.40123,179.16273 407.40123,179.12915 C 407.40124,178.22979 407.27983,177.35695 407.08838,176.50908 C 406.89693,175.66124 406.63091,174.86348 406.26717,174.08453 C 405.90343,173.30556 405.4545,172.54815 404.93758,171.85551 C 404.42069,171.16285 403.82876,170.48915 403.17783,169.90023 C 402.52687,169.3113 401.79282,168.8038 401.02702,168.33601 C 400.26119,167.86822 399.464,167.453 398.60247,167.12373 C 397.74092,166.79447 396.84232,166.55406 395.90419,166.38073 C 394.96608,166.20739 394.00595,166.10699 393.01037,166.10699 C 392.06882,166.10696 391.11983,166.18426 390.23388,166.34162 C 389.34794,166.49901 388.50747,166.74607 387.69202,167.04553 C 386.87652,167.34501 386.07583,167.71417 385.34568,168.14048 C 384.61551,168.56677 383.94216,169.04947 383.31219,169.58739 C 382.68221,170.12529 382.10651,170.71287 381.59154,171.34714 C 381.07658,171.98139 380.64706,172.66527 380.26196,173.38063 C 379.87681,174.09597 379.52473,174.82843 379.28431,175.60964 C 379.04392,176.39083 378.89591,177.20238 378.81505,178.03419 L 378.77594,178.03419 L 378.77594,178.22972 C 378.75009,178.54972 378.58041,178.80476 378.58041,179.12915 C 378.58045,179.22094 378.59936,179.31718 378.61952,179.40288 C 378.59935,179.48838 378.58041,179.58405 378.58041,179.67662 C 378.58046,179.99812 378.75007,180.25895 378.77594,180.57605 L 378.77594,207.55891 C 378.77597,207.55893 376.85864,208.81703 374.3179,210.17898 C 373.04755,210.85996 371.59914,211.56063 370.17271,212.13426 C 369.45952,212.42108 368.75335,212.67326 368.06101,212.87726 C 367.36871,213.08126 366.69816,213.22357 366.06663,213.30743 L 366.06663,213.26832 C 365.75851,213.29374 365.47026,213.35688 365.1672,213.38563 C 365.13593,213.38611 365.08088,213.38563 365.04988,213.38563 C 364.7392,213.38565 364.42741,213.40408 364.11135,213.38563 C 362.92613,213.31646 361.70799,213.10675 360.51364,212.79905 C 359.31925,212.49134 358.13445,212.09763 357.03324,211.58678 C 355.93207,211.07594 354.9279,210.46654 354.02211,209.78792 C 353.11629,209.10928 352.32295,208.36989 351.71487,207.55891 L 351.63667,181.31906 C 351.7203,180.76681 351.98862,180.24855 351.98862,179.67662 C 351.9886,179.52666 351.9551,179.39519 351.94951,179.24647 C 351.95129,179.21342 351.98862,179.16273 351.98862,179.12915 C 351.98862,178.22998 351.86766,177.35685 351.67577,176.50908 C 351.48386,175.66133 351.21909,174.86344 350.85456,174.08453 C 350.49003,173.3056 350.04284,172.54816 349.52497,171.85551 C 349.00709,171.16283 348.41718,170.48919 347.76522,169.90023 C 347.1133,169.31126 346.38116,168.80385 345.61441,168.33601 C 344.84768,167.86816 344.01306,167.45306 343.15075,167.12373 C 342.28849,166.79441 341.39104,166.5541 340.45247,166.38073 C 339.51388,166.20735 338.55423,166.10699 337.55866,166.10699 C 337.50942,166.10698 337.45134,166.10653 337.40223,166.10699 C 337.37464,166.10684 337.35163,166.10699 337.32403,166.10699 C 337.16528,166.10698 337.01213,166.14144 336.85476,166.14609 C 335.94116,166.17311 335.05363,166.28369 334.19557,166.45894 C 333.33753,166.63418 332.52056,166.85359 331.73192,167.16284 C 330.94332,167.47213 330.20816,167.86788 329.5029,168.2969 C 328.79768,168.72593 328.11644,169.20927 327.50852,169.74381 C 326.90056,170.27836 326.36275,170.83862 325.86609,171.46445 C 325.36942,172.09026 324.90794,172.75596 324.5365,173.45883 C 324.16506,174.16174 323.86935,174.92216 323.63707,175.68785 C 323.40481,176.45359 323.24697,177.21993 323.1678,178.03419 L 323.08959,178.03419 L 323.08959,178.22972 C 323.06376,178.54972 322.93317,178.80476 322.93317,179.12915 C 322.93313,179.22094 322.913,179.31718 322.93317,179.40288 C 322.913,179.48838 322.93317,179.58405 322.93317,179.67662 C 322.93313,179.99812 323.06372,180.25895 323.08959,180.57605 L 323.08959,207.55891 C 323.08963,207.55894 321.87638,208.36625 320.07847,209.39686 C 319.84115,209.52431 319.66789,209.6556 319.41367,209.78792 C 319.393,209.79946 319.35628,209.81547 319.33546,209.82703 C 318.19392,210.41966 316.90348,211.03778 315.58132,211.58678 C 314.25917,212.13581 312.88002,212.62166 311.63166,212.91638 L 311.63166,213.1119 C 310.83582,213.30426 310.08781,213.38563 309.40264,213.38563 C 308.1604,213.38563 306.89009,213.23481 305.6094,212.95548 C 304.32866,212.67617 303.04991,212.29893 301.85526,211.78231 C 300.66062,211.26571 299.51539,210.6171 298.53128,209.90524 C 298.03928,209.5493 297.61775,209.16804 297.2017,208.77118 C 296.78564,208.37431 296.39216,207.99143 296.06763,207.55891 L 295.95032,181.31906 C 296.03548,180.76681 296.34138,180.24855 296.34138,179.67662 C 296.34138,179.5267 296.30783,179.39516 296.30226,179.24647 C 296.30403,179.21342 296.34138,179.16273 296.34138,179.12915 C 296.34139,178.22979 296.22043,177.35695 296.02853,176.50908 C 295.8366,175.66124 295.53272,174.86348 295.16821,174.08453 C 294.80368,173.30556 294.39559,172.54815 293.87772,171.85551 C 293.35985,171.16285 292.7308,170.48915 292.07886,169.90023 C 291.42687,169.3113 290.73392,168.8038 289.96716,168.33601 C 289.20036,167.86822 288.40492,167.453 287.54261,167.12373 C 286.68029,166.79447 285.7438,166.55406 284.80522,166.38073 C 283.86665,166.20739 282.90698,166.10699 281.91142,166.10699 z M 281.91142,247.68124 C 280.97004,247.68124 280.05986,247.75851 279.17402,247.91587 C 278.28815,248.07321 277.40848,248.3203 276.59305,248.61977 C 275.77765,248.91922 275.01598,249.28841 274.28582,249.71472 C 273.55568,250.14105 272.88235,250.62373 272.25233,251.16163 C 271.62226,251.69958 271.04672,252.248 270.53169,252.88228 C 270.01663,253.51655 269.54817,254.23951 269.163,254.95487 C 268.77783,255.67027 268.46491,256.40269 268.22446,257.18389 C 267.98402,257.9651 267.83607,258.77663 267.75519,259.60844 L 267.71609,259.60844 L 267.71609,259.76486 C 267.69022,260.08343 267.48145,260.379 267.48145,260.70339 C 267.48145,261.02486 267.69022,261.28721 267.71609,261.60283 L 267.71609,279.7087 L 277.57069,289.60242 C 277.5922,289.59468 277.62739,289.571 277.64891,289.56332 C 278.41961,289.28772 279.15659,289.05928 279.87793,288.89852 C 280.5993,288.73778 281.29029,288.62478 281.91142,288.62478 C 283.15246,288.62479 284.42888,288.77342 285.70466,289.05494 C 286.98046,289.33648 288.27003,289.74806 289.45879,290.26722 C 290.64751,290.7864 291.72458,291.43133 292.70455,292.14428 C 293.19453,292.50074 293.6974,292.88166 294.11236,293.27835 C 294.52735,293.67502 294.8826,294.09829 295.20731,294.52973 L 295.20731,307.19993 L 319.84383,331.83645 C 320.393,331.31413 320.92104,330.79306 321.36895,330.19402 C 321.88681,329.50135 322.33402,328.74395 322.69853,327.965 C 323.06305,327.186 323.32787,326.38832 323.51975,325.54045 C 323.71161,324.69258 323.7935,323.78066 323.7935,322.88127 C 323.79348,322.30409 323.56151,321.83759 323.48064,321.27794 L 323.48064,294.52973 C 323.48063,294.52971 324.52202,293.83576 326.02251,292.9655 C 326.21452,292.85415 326.36216,292.77023 326.56999,292.65265 C 328.12204,291.79887 330.05305,290.82075 332.00566,290.03258 C 332.98193,289.63852 333.97299,289.30078 334.89948,289.05494 C 335.82597,288.80908 336.70376,288.6345 337.48044,288.62478 C 337.74336,288.62728 337.9961,288.64814 338.26256,288.66388 C 339.44504,288.7337 340.67123,288.942 341.86027,289.25047 C 343.04929,289.55893 344.20597,289.95154 345.30157,290.46274 C 346.39712,290.97389 347.41049,291.58358 348.31269,292.2616 C 349.2149,292.93961 350.01108,293.7208 350.61992,294.52973 L 350.61992,322.02095 C 350.59402,322.33659 350.42439,322.56127 350.42439,322.88127 C 350.4244,323.20713 350.59404,323.50272 350.61992,323.8198 L 350.61992,324.01533 L 350.69813,324.01533 C 350.7904,324.96244 350.9855,325.84086 351.28472,326.71362 C 351.58389,327.58638 351.97399,328.43771 352.45788,329.21638 C 352.94181,329.99506 353.53219,330.74147 354.17853,331.40628 C 354.37524,331.60862 354.5938,331.76317 354.80422,331.95377 L 379.12789,307.63009 L 379.12789,294.52973 C 379.12793,294.5297 381.32854,293.02747 384.17252,291.5577 C 385.59448,290.8228 387.17642,290.11447 388.70876,289.56332 C 389.47491,289.28772 390.21911,289.05928 390.93778,288.89852 C 391.65642,288.73778 392.35016,288.62478 392.97127,288.62478 C 394.21231,288.62479 395.48708,288.77342 396.76451,289.05494 C 396.99453,289.10565 397.23952,289.23059 397.46841,289.28958 L 407.08838,279.6696 L 407.04928,262.34583 C 407.13014,261.78617 407.40123,261.28058 407.40123,260.70339 C 407.40124,259.80418 407.27983,258.89199 407.08838,258.04421 C 406.89693,257.19644 406.63091,256.39859 406.26717,255.61967 C 405.90343,254.84077 405.4545,254.08332 404.93758,253.39065 C 404.42069,252.69801 403.82876,252.06345 403.17783,251.47448 C 402.52687,250.88555 401.79282,250.339 401.02702,249.87115 C 400.26119,249.40331 399.464,249.02729 398.60247,248.69798 C 397.74092,248.36869 396.84232,248.08923 395.90419,247.91587 C 394.96608,247.74251 394.00595,247.68124 393.01037,247.68124 C 392.06882,247.68124 391.11983,247.75851 390.23388,247.91587 C 389.34794,248.07321 388.50747,248.3203 387.69202,248.61977 C 386.87652,248.91922 386.07583,249.28841 385.34568,249.71472 C 384.61551,250.14105 383.94216,250.62373 383.31219,251.16163 C 382.68221,251.69958 382.10651,252.248 381.59154,252.88228 C 381.07658,253.51655 380.64706,254.23951 380.26196,254.95487 C 379.87681,255.67027 379.52473,256.40269 379.28431,257.18389 C 379.04392,257.9651 378.89591,258.77663 378.81505,259.60844 L 378.77594,259.60844 L 378.77594,259.76486 C 378.75009,260.08343 378.58041,260.379 378.58041,260.70339 C 378.58045,261.02486 378.75007,261.28721 378.77594,261.60283 L 378.77594,289.09405 C 378.77597,289.094 376.85864,290.39129 374.3179,291.75323 C 373.04755,292.43425 371.59914,293.13489 370.17271,293.7085 C 369.45952,293.99529 368.75335,294.24752 368.06101,294.45151 C 367.36871,294.65553 366.69816,294.79782 366.06663,294.88167 L 366.06663,294.84257 C 365.75851,294.86901 365.47026,294.93146 365.1672,294.95988 C 365.13593,294.96031 365.08088,294.95988 365.04988,294.95988 C 364.7392,294.95984 364.42741,294.93924 364.11135,294.92078 C 362.92613,294.8516 361.70799,294.68111 360.51364,294.3733 C 359.31925,294.0655 358.13445,293.63286 357.03324,293.12192 C 355.93207,292.61096 354.9279,292.0016 354.02211,291.32307 C 353.11629,290.64454 352.32295,289.90468 351.71487,289.09405 L 351.63667,262.34583 C 351.71752,261.78617 351.98862,261.28058 351.98862,260.70339 C 351.98862,259.80418 351.86766,258.89199 351.67577,258.04421 C 351.48386,257.19644 351.21909,256.39859 350.85456,255.61967 C 350.49003,254.84077 350.04284,254.08332 349.52497,253.39065 C 349.00709,252.69801 348.41718,252.06345 347.76522,251.47448 C 347.1133,250.88555 346.38116,250.339 345.61441,249.87115 C 344.84768,249.40331 344.01306,249.02729 343.15075,248.69798 C 342.28849,248.36869 341.39104,248.08923 340.45247,247.91587 C 339.51388,247.74251 338.55423,247.68124 337.55866,247.68124 C 337.50942,247.68124 337.45134,247.68079 337.40223,247.68124 C 337.37464,247.6811 337.35163,247.68124 337.32403,247.68124 C 337.16528,247.68124 337.01213,247.67658 336.85476,247.68124 C 335.94116,247.70829 335.05363,247.81883 334.19557,247.99408 C 333.33753,248.16936 332.52056,248.42782 331.73192,248.73708 C 330.94332,249.04633 330.20816,249.40304 329.5029,249.83205 C 328.79768,250.2611 328.11644,250.7444 327.50852,251.27894 C 326.90056,251.81345 326.36275,252.41286 325.86609,253.0387 C 325.36942,253.66453 324.90794,254.33021 324.5365,255.03308 C 324.16506,255.73594 323.86935,256.45731 323.63707,257.223 C 323.40481,257.98868 323.24697,258.79417 323.1678,259.60844 L 323.08959,259.60844 L 323.08959,259.76486 C 323.06376,260.08343 322.93317,260.379 322.93317,260.70339 C 322.93313,261.02486 323.06372,261.28721 323.08959,261.60283 L 323.08959,289.09405 C 323.08963,289.094 321.87638,289.9405 320.07847,290.97111 C 319.84115,291.09862 319.66789,291.22982 319.41367,291.36217 C 319.393,291.37374 319.35628,291.35061 319.33546,291.36217 C 318.19392,291.95485 316.90348,292.61196 315.58132,293.16103 C 314.25917,293.71008 312.88002,294.15718 311.63166,294.45151 L 311.63166,294.64704 C 310.83582,294.83937 310.08781,294.95988 309.40264,294.95988 C 308.1604,294.95984 306.89009,294.80919 305.6094,294.52973 C 304.32866,294.25025 303.04991,293.83416 301.85526,293.31745 C 300.66062,292.80072 299.51539,292.19127 298.53128,291.47948 C 298.03928,291.12362 297.61775,290.74217 297.2017,290.34543 C 296.78564,289.94869 296.39216,289.52638 296.06763,289.09405 L 295.95032,262.34583 C 296.03278,261.78617 296.34138,261.28058 296.34138,260.70339 C 296.34139,259.80418 296.22043,258.89199 296.02853,258.04421 C 295.8366,257.19644 295.53272,256.39859 295.16821,255.61967 C 294.80368,254.84077 294.39559,254.08332 293.87772,253.39065 C 293.35985,252.69801 292.7308,252.06345 292.07886,251.47448 C 291.42687,250.88555 290.73392,250.339 289.96716,249.87115 C 289.20036,249.40331 288.40492,249.02729 287.54261,248.69798 C 286.68029,248.36869 285.7438,248.08923 284.80522,247.91587 C 283.86665,247.74251 282.90698,247.68124 281.91142,247.68124 z M 336.85476,329.25548 C 335.94117,329.28244 335.05363,329.39351 334.19557,329.56832 C 333.33753,329.74316 332.52056,329.96367 331.73192,330.27223 C 330.94332,330.58081 330.20816,330.97814 329.5029,331.40628 C 328.79768,331.83443 328.11644,332.3196 327.50852,332.85319 C 326.90056,333.38681 326.36275,333.9489 325.86609,334.57384 C 325.3739,335.19311 324.94487,335.87307 324.57561,336.56822 L 337.36313,349.39486 L 350.34618,336.37269 C 350.0763,335.8938 349.85608,335.40715 349.52497,334.9649 C 349.00711,334.27318 348.41712,333.6366 347.76522,333.04872 C 347.11335,332.46086 346.3811,331.91219 345.61441,331.4454 C 344.84774,330.97859 344.01301,330.60069 343.15075,330.27223 C 342.28854,329.94375 341.391,329.66297 340.45247,329.49012 C 339.51392,329.31725 338.55423,329.25548 337.55866,329.25548 C 337.50942,329.25548 337.45134,329.25503 337.40223,329.25548 C 337.37464,329.25533 337.35163,329.25548 337.32403,329.25548 C 337.16528,329.25548 337.01213,329.25084 336.85476,329.25548 z"
   id="path2553" /><path
   id="path3906"
   d="M 337.15586,100.07769 L 212.57771,223.96758 L 336.46758,349.9223 L 462.42229,223.96758 L 337.15586,100.07769 z"
   style="fill:none;fill-opacity:1;fill-rule:evenodd;stroke:#da121a;stroke-width:4.49999952000000030;stroke-linecap:butt;stroke-linejoin:miter;stroke-miterlimit:4;stroke-dasharray:none;stroke-opacity:1" /></svg>