<?xml version="1.0" encoding="UTF-8" standalone="no"?>
<!-- Generator: Adobe Illustrator 12.0.0, SVG Export Plug-In . SVG Version: 6.00 Build 51448)  -->
<svg
   xmlns:dc="http://purl.org/dc/elements/1.1/"
   xmlns:cc="http://creativecommons.org/ns#"
   xmlns:rdf="http://www.w3.org/1999/02/22-rdf-syntax-ns#"
   xmlns:svg="http://www.w3.org/2000/svg"
   xmlns="http://www.w3.org/2000/svg"
   xmlns:xlink="http://www.w3.org/1999/xlink"
   xmlns:sodipodi="http://sodipodi.sourceforge.net/DTD/sodipodi-0.dtd"
   xmlns:inkscape="http://www.inkscape.org/namespaces/inkscape"
   version="1.0"
   id="Capa_1"
   width="860.96979"
   height="500.00006"
   viewBox="0 0 4394.701 2552.181"
   overflow="visible"
   enable-background="new 0 0 4394.701 2552.181"
   xml:space="preserve"
   sodipodi:version="0.32"
   inkscape:version="0.46"
   sodipodi:docname="Albacete-Bandera.svg"
   inkscape:output_extension="org.inkscape.output.svg.inkscape"
   style="overflow:visible"><metadata
   id="metadata146"><rdf:RDF><cc:Work
       rdf:about=""><dc:format>image/svg+xml</dc:format><dc:type
         rdf:resource="http://purl.org/dc/dcmitype/StillImage" /></cc:Work></rdf:RDF></metadata><defs
   id="defs144"><inkscape:perspective
   sodipodi:type="inkscape:persp3d"
   inkscape:vp_x="0 : 1276.0905 : 1"
   inkscape:vp_y="0 : 1000 : 0"
   inkscape:vp_z="4394.7012 : 1276.0905 : 1"
   inkscape:persp3d-origin="2197.3506 : 850.72697 : 1"
   id="perspective148" />
	
	
	
	
		
	
	
	
		
	
	
	
	
	
	
	
	
	
	
	
	
	
	
	
	
	
	
	
	
	
	
	
	
	
	
	
	
	
	
	
	
	
	
	
	
	
	
	
	
	
<inkscape:perspective
   sodipodi:type="inkscape:persp3d"
   inkscape:vp_x="0 : 526.18109 : 1"
   inkscape:vp_y="0 : 1000 : 0"
   inkscape:vp_z="744.09448 : 526.18109 : 1"
   inkscape:persp3d-origin="372.04724 : 350.78739 : 1"
   id="perspective4331" /><inkscape:perspective
   sodipodi:type="inkscape:persp3d"
   inkscape:vp_x="0 : 526.18109 : 1"
   inkscape:vp_y="0 : 1000 : 0"
   inkscape:vp_z="744.09448 : 526.18109 : 1"
   inkscape:persp3d-origin="372.04724 : 350.78739 : 1"
   id="perspective3324" /><inkscape:perspective
   id="perspective10"
   inkscape:persp3d-origin="372.04724 : 350.78739 : 1"
   inkscape:vp_z="744.09448 : 526.18109 : 1"
   inkscape:vp_y="0 : 1000 : 0"
   inkscape:vp_x="0 : 526.18109 : 1"
   sodipodi:type="inkscape:persp3d" /></defs><sodipodi:namedview
   inkscape:window-height="744"
   inkscape:window-width="1280"
   inkscape:pageshadow="2"
   inkscape:pageopacity="0.0"
   guidetolerance="10.0"
   gridtolerance="10.0"
   objecttolerance="10.0"
   borderopacity="1.0"
   bordercolor="#666666"
   pagecolor="#ffffff"
   id="base"
   showgrid="false"
   inkscape:zoom="0.69403792"
   inkscape:cx="436.20874"
   inkscape:cy="287.08105"
   inkscape:window-x="-4"
   inkscape:window-y="-4"
   inkscape:current-layer="Capa_1" />
<g
   id="g2593"
   transform="matrix(5.1043607,0,0,5.1043607,-1317.5961,-7878.3594)"><polygon
     transform="matrix(0.1959109,0,0,0.1959109,258.51184,1543.2358)"
     stroke-miterlimit="3.8637"
     points="0.5,0.5 4394.201,0.5 4394.201,2551.681 0.5,2551.681 0.5,0.5 "
     id="polygon5"
     style="fill:#981932;stroke:#000000;stroke-miterlimit:3.86369990999999980;fill-opacity:1" /><path
     stroke-miterlimit="3.8637"
     d="M 618.90992,1679.2195 C 618.90992,1679.2195 621.43208,1680.5482 622.55602,1679.885 C 622.91591,1679.6725 623.13259,1679.2558 623.07616,1678.5252 C 622.84558,1675.5152 623.53969,1671.5792 619.83541,1666.2537 C 616.13132,1660.9285 615.20564,1662.5493 611.03783,1663.9385 C 606.87159,1665.3277 604.55671,1672.2737 607.5659,1672.5055 C 610.57509,1672.7368 615.66858,1674.589 616.82563,1676.2099 C 617.98346,1677.8311 618.90992,1679.2195 618.90992,1679.2195 L 618.90992,1679.2195 z"
     id="path7"
     style="fill:#bca728;stroke:#000000;stroke-width:0.46142894;stroke-miterlimit:3.86369991" /><path
     stroke-miterlimit="3.8637"
     d="M 633.26216,1673.4315 C 633.26216,1673.4315 632.33648,1676.2099 633.49373,1677.3674 C 634.65156,1678.5252 637.19781,1679.4517 637.19781,1679.4517 C 637.19781,1679.4517 638.58702,1683.8508 636.50351,1684.0822 C 635.16269,1684.2315 631.13751,1684.9558 628.43766,1685.4532 C 626.94266,1685.7287 625.85457,1685.9346 625.85457,1685.9346 C 625.85457,1685.9346 625.6232,1682.6932 624.69674,1681.5358 C 623.77106,1680.3779 622.55602,1679.8852 622.55602,1679.8852 C 622.55602,1679.8852 623.77106,1675.9791 625.6232,1673.6631 C 627.47534,1671.3478 628.63298,1669.9584 628.63298,1669.9584 C 628.63298,1669.9584 629.55807,1671.1162 630.94708,1671.5794 C 632.33668,1672.0423 633.26216,1673.4315 633.26216,1673.4315 L 633.26216,1673.4315 z"
     id="path9"
     style="fill:#bca728;stroke:#000000;stroke-width:0.46142894;stroke-miterlimit:3.86369991" /><path
     clip-rule="evenodd"
     stroke-miterlimit="3.8637"
     d="M 690.67483,1670.4215 L 703.1761,1676.6733 C 703.1761,1676.6733 706.41745,1678.0621 707.34371,1675.979 C 708.26939,1673.8947 707.80665,1662.7806 707.80665,1662.7806 C 707.80665,1662.7806 706.64882,1660.9285 704.10237,1661.6232 C 701.55611,1662.3173 690.9064,1665.559 690.9064,1665.559 L 692.82691,1664.967 C 692.82691,1664.967 696.46282,1658.1501 697.15752,1655.603 C 697.85202,1653.0562 697.85202,1647.268 689.98072,1647.268 C 682.10941,1647.268 678.40591,1649.3519 680.02609,1654.2138 C 681.64667,1659.0762 685.1188,1666.7171 685.1188,1666.7171 L 686.04526,1665.3367 C 686.04526,1665.3367 677.47964,1661.8548 675.39633,1661.1601 C 673.31281,1660.4656 670.76636,1661.3916 670.5344,1664.17 C 670.30284,1666.9488 667.75658,1678.0621 673.54418,1676.6733 C 679.33198,1675.2839 685.81389,1670.8845 685.81389,1670.8845 L 690.67483,1670.4215 L 690.67483,1670.4215 z"
     id="path11"
     style="fill:#bca728;fill-rule:evenodd;stroke:#000000;stroke-width:0.46142894;stroke-miterlimit:3.86369991" /><path
     stroke-miterlimit="3.8637"
     d="M 748.78279,1686.8612 L 739.75443,1683.1563 C 739.75443,1683.1563 741.37441,1677.3676 743.22656,1675.5154 C 745.0785,1673.6629 749.01416,1669.2641 751.09767,1672.5055 C 753.18138,1675.7468 755.49606,1681.3038 755.49606,1681.3038 C 755.49606,1681.3038 755.03332,1674.1262 756.88546,1670.1902 C 758.73682,1666.2537 762.20954,1658.6132 765.45088,1661.6232 C 768.69164,1664.6332 771.23868,1670.6533 769.15497,1671.8108 C 767.07068,1672.9686 762.20954,1675.2839 760.82112,1677.5991 C 759.43172,1679.9144 754.5698,1684.314 754.5698,1684.314 L 748.78279,1686.8612 L 748.78279,1686.8612 z"
     id="path13"
     style="fill:#bca728;stroke:#000000;stroke-width:0.46142894;stroke-miterlimit:3.86369991" /><path
     stroke-miterlimit="3.8637"
     d="M 645.06912,1705.3836 L 631.41021,1692.4178 L 632.56805,1689.8708 C 632.56805,1689.8708 640.9021,1695.1964 645.53206,1695.1964 C 650.16261,1695.1964 648.77341,1690.3339 651.31966,1685.472 C 653.86611,1680.6097 654.79238,1680.8407 654.79238,1680.8407 C 654.79238,1680.8407 661.27428,1685.9346 665.90425,1687.3242 C 670.53421,1688.7134 676.78553,1689.1767 680.7202,1684.7771 C 684.65566,1680.3779 689.05425,1675.2841 689.05425,1675.2841 C 689.05425,1675.2841 692.98971,1684.7771 698.54614,1687.0924 C 704.10237,1689.4077 710.12153,1691.9549 715.21424,1687.7873 C 720.30772,1683.6193 724.93749,1678.9885 724.93749,1678.9885 C 724.93749,1678.9885 722.6228,1692.4178 728.17884,1693.807 C 733.73448,1695.1964 732.8088,1697.7427 736.51308,1694.9645 C 740.21639,1692.1859 743.45773,1692.6492 743.45773,1692.6492 L 737.20719,1701.9107 L 645.06912,1705.3836 L 645.06912,1705.3836 z"
     id="path15"
     style="fill:#a8afb5;stroke:#a8afb5;stroke-width:0.46142894;stroke-miterlimit:3.86369991" /><path
     clip-rule="evenodd"
     stroke-miterlimit="3.8637"
     d="M 651.08829,1716.498 L 646.45833,1715.1084 C 646.45833,1715.1084 643.67992,1708.394 642.52287,1706.5414 C 641.36562,1704.6893 627.93828,1688.0187 627.93828,1688.0187 L 637.89291,1697.9748 L 642.52287,1702.374 C 642.52287,1702.374 654.32963,1693.3439 681.4153,1692.6492 C 708.50096,1691.9545 723.31711,1696.5851 723.31711,1696.5851 L 737.20719,1701.9107 L 742.30068,1693.8068 C 742.30068,1693.8068 732.8088,1709.783 732.57743,1711.4036 C 732.34508,1713.0241 731.41959,1715.5712 731.41959,1715.5712 C 731.41959,1715.5712 699.4726,1705.615 692.98991,1706.7724 C 686.5078,1707.9308 651.08829,1716.498 651.08829,1716.498 L 651.08829,1716.498 z"
     id="path17"
     style="fill:#bca728;fill-rule:evenodd;stroke:#000000;stroke-width:0.46142894;stroke-miterlimit:3.86369991" /><path
     stroke-miterlimit="3.8637"
     d="M 606.19785,1729.2324 L 768.92262,1729.2324 L 768.92262,1889.6721 C 770.48658,1918.7427 737.21307,1944.2958 685.12232,1941.8154 C 636.67258,1939.5081 604.37294,1919.2045 606.21842,1889.6721 L 606.19785,1729.2324 L 606.19785,1729.2324 z"
     id="path19"
     style="fill:#a8afb5;stroke:#000000;stroke-width:2.76861286;stroke-miterlimit:3.86369991" /><path
     stroke-miterlimit="3.8637"
     d="M 687.88329,1776.7663 C 687.52419,1774.8885 686.72683,1773.8743 685.30315,1772.5981 C 684.4525,1771.8352 683.80149,1771.5868 682.723,1771.2089 L 679.94459,1773.789 L 676.1735,1773.789 C 676.2697,1772.6769 676.77064,1771.9228 677.76117,1771.4073 C 678.52012,1771.0124 679.12843,1770.9556 679.94459,1771.2089 L 679.94459,1769.4226 L 647.79189,1769.4226 L 644.61598,1771.6058 C 642.10342,1769.3746 640.28655,1768.4244 637.07459,1767.4376 C 633.51586,1766.3448 631.2002,1766.1234 627.54744,1766.842 L 646.79941,1751.3606 L 654.53985,1751.3606 L 660.49436,1751.3606 L 676.96773,1758.9029 L 683.91394,1755.1317 L 683.91394,1752.1548 C 682.94654,1751.74 682.41307,1751.3686 681.7311,1750.5669 C 680.5094,1749.1317 680.09642,1747.8861 680.14285,1746.0016 C 681.62041,1746.5997 682.47537,1746.9853 683.71549,1747.9868 C 684.48169,1748.6053 684.88664,1749.0034 685.50141,1749.7731 C 685.50141,1749.7731 686.83341,1749.7731 687.68503,1749.7731 C 688.53646,1749.7731 689.86846,1749.7731 689.86846,1749.7731 C 690.48127,1749.002 690.88974,1748.6074 691.65438,1747.9868 C 692.89156,1746.9818 693.75102,1746.604 695.22701,1746.0016 C 695.27325,1747.8861 694.86771,1749.1372 693.63935,1750.5669 C 692.95308,1751.3655 692.42647,1751.7471 691.45573,1752.1548 L 691.45573,1755.1317 L 698.40293,1758.9029 L 714.87551,1751.3606 L 720.83002,1751.3606 L 728.57046,1751.3606 L 747.82243,1766.842 C 744.1683,1766.1324 741.85185,1766.3366 738.29607,1767.4376 C 735.08548,1768.4317 733.26312,1769.3703 730.75408,1771.6058 L 727.57876,1769.4226 L 695.42547,1769.4226 L 695.42547,1771.2089 C 696.25359,1770.9948 696.84485,1771.0234 697.6089,1771.4073 C 698.60667,1771.9085 699.0988,1772.6769 699.19656,1773.789 L 695.42567,1773.789 L 692.64706,1771.2089 C 691.55094,1771.5333 690.90581,1771.8223 690.06692,1772.5981 C 688.71846,1773.8435 688.00593,1774.9353 687.88329,1776.7663 L 687.88329,1776.7663 z"
     id="path21"
     style="fill:#59595b;stroke:#000000;stroke-width:1.19088364;stroke-miterlimit:3.86369991" /><path
     stroke-miterlimit="3.8637"
     d="M 642.52267,1692.6494 C 645.06912,1693.8072 649.46752,1693.5755 649.93026,1688.9447 C 650.39378,1684.3142 650.62535,1675.2841 650.62535,1675.2841 C 650.62535,1675.2841 651.7824,1670.6535 654.09807,1673.8949 C 656.41295,1677.1366 663.82054,1688.2502 673.54379,1685.703 C 683.26646,1683.1563 685.58213,1672.9688 685.58213,1672.9688 C 685.58213,1672.9688 686.97133,1670.4217 688.82347,1670.8845 C 690.67463,1671.3476 691.36972,1673.6631 691.83247,1675.2841 C 692.2954,1676.9044 698.77731,1687.3242 707.80645,1687.0924 C 716.83462,1686.8614 723.31672,1674.5892 723.31672,1674.5892 C 723.31672,1674.5892 724.70592,1670.8845 726.78944,1671.8109 C 728.87314,1672.737 727.7159,1680.8407 727.7159,1682.9248 C 727.7159,1685.0083 727.25218,1695.4274 734.19702,1693.3439 C 741.14246,1691.26 747.16162,1685.0085 748.78239,1685.0085 C 750.40218,1685.0085 753.64353,1687.7873 751.56002,1689.1767 C 749.47651,1690.5655 742.06833,1696.5853 738.36464,1697.975 C 734.66055,1699.3639 725.86297,1697.975 724.9371,1692.1863 C 724.01064,1686.3983 724.47436,1681.304 724.47436,1681.304 C 724.47436,1681.304 714.7511,1694.3903 706.41705,1692.7695 C 698.083,1691.1487 692.52677,1685.0085 691.36953,1683.1565 C 690.2117,1681.304 688.12818,1677.5995 688.12818,1677.5995 C 688.12818,1677.5995 682.34058,1689.6396 675.85848,1691.2602 C 669.37657,1692.8812 661.27389,1688.7134 659.65332,1687.3242 C 658.03333,1685.9346 655.02355,1681.9989 655.02355,1681.9989 C 655.02355,1681.9989 655.25492,1693.1121 652.94004,1695.4274 C 650.62516,1697.7427 644.83736,1699.1327 642.05954,1697.2803 C 639.28093,1695.4274 625.62301,1687.7873 625.62301,1687.7873 C 625.62301,1687.7873 623.30734,1684.5454 625.15948,1684.3142 C 627.01162,1684.0822 631.17943,1686.6295 632.79922,1687.7873 C 634.41999,1688.9447 639.97642,1691.4918 642.52267,1692.6494 L 642.52267,1692.6494 z"
     id="path23"
     style="fill:#bca728;stroke:#000000;stroke-width:0.46142894;stroke-miterlimit:3.86369991" /><path
     stroke-miterlimit="3.8637"
     d="M 683.26665,1667.5274 C 683.26665,1664.7779 685.54784,1662.5493 688.36014,1662.5493 C 691.17323,1662.5493 693.45304,1664.7777 693.45304,1667.5274 C 693.45304,1670.2766 691.17323,1672.5055 688.36014,1672.5055 C 685.54764,1672.5055 683.26665,1670.2766 683.26665,1667.5274 L 683.26665,1667.5274 z"
     id="path25"
     style="fill:#ffffff;stroke:#000000;stroke-width:0.46142894;stroke-miterlimit:3.86369991" /><path
     stroke-miterlimit="3.8637"
     d="M 719.61263,1670.4215 C 719.61263,1668.376 721.16738,1666.7171 723.08554,1666.7171 C 725.00371,1666.7171 726.55846,1668.376 726.55846,1670.4215 C 726.55846,1672.4676 725.00371,1674.1262 723.08554,1674.1262 C 721.16738,1674.1262 719.61263,1672.4676 719.61263,1670.4215 L 719.61263,1670.4215 z"
     id="path27"
     style="fill:#00acec;stroke:#000000;stroke-width:0.46142894;stroke-miterlimit:3.86369991" /><path
     stroke-miterlimit="3.8637"
     d="M 724.43067,1667.1802 C 724.43067,1665.1339 726.15037,1663.4757 728.27209,1663.4757 C 730.3938,1663.4757 732.11449,1665.1339 732.11449,1667.1802 C 732.11449,1669.2263 730.3938,1670.8845 728.27209,1670.8845 C 726.15037,1670.8845 724.43067,1669.2263 724.43067,1667.1802 L 724.43067,1667.1802 z"
     id="path29"
     style="fill:#00acec;stroke:#000000;stroke-width:0.46142894;stroke-miterlimit:3.86369991" /><path
     stroke-miterlimit="3.8637"
     d="M 726.18858,1673.4315 C 726.18858,1671.3854 727.77408,1669.7268 729.72967,1669.7268 C 731.68603,1669.7268 733.27154,1671.3854 733.27154,1673.4315 C 733.27154,1675.4774 731.68603,1677.1364 729.72967,1677.1364 C 727.77408,1677.1366 726.18858,1675.4776 726.18858,1673.4315 L 726.18858,1673.4315 z"
     id="path31"
     style="fill:#00acec;stroke:#000000;stroke-width:0.46142894;stroke-miterlimit:3.86369991" /><path
     stroke-miterlimit="3.8637"
     d="M 646.45833,1666.2539 C 646.45833,1664.2078 648.04383,1662.5495 649.99942,1662.5495 C 651.95578,1662.5495 653.54129,1664.2078 653.54129,1666.2539 C 653.54129,1668.3002 651.95598,1669.9584 649.99942,1669.9584 C 648.04383,1669.9584 646.45833,1668.3002 646.45833,1666.2539 L 646.45833,1666.2539 z"
     id="path33"
     style="fill:#00acec;stroke:#000000;stroke-width:0.46142894;stroke-miterlimit:3.86369991" /><path
     stroke-miterlimit="3.8637"
     d="M 650.85672,1670.6535 C 650.85672,1668.607 652.44223,1666.9488 654.3986,1666.9488 C 656.35418,1666.9488 657.93968,1668.607 657.93968,1670.6535 C 657.93968,1672.699 656.35418,1674.358 654.3986,1674.358 C 652.44223,1674.358 650.85672,1672.699 650.85672,1670.6535 L 650.85672,1670.6535 z"
     id="path35"
     style="fill:#00acec;stroke:#000000;stroke-width:0.46142894;stroke-miterlimit:3.86369991" /><path
     stroke-miterlimit="3.8637"
     d="M 644.69944,1671.5794 C 644.69944,1669.5335 646.28573,1667.8749 648.24131,1667.8749 C 650.19689,1667.8749 651.7824,1669.5335 651.7824,1671.5794 C 651.7824,1673.6251 650.19689,1675.2839 648.24131,1675.2839 C 646.28573,1675.2839 644.69944,1673.6251 644.69944,1671.5794 L 644.69944,1671.5794 z"
     id="path37"
     style="fill:#00acec;stroke:#000000;stroke-width:0.46142894;stroke-miterlimit:3.86369991" /><path
     stroke-miterlimit="3.8637"
     d="M 638.58721,1703.5317 C 639.51368,1705.3846 641.36562,1704.6895 641.36562,1704.6895 C 641.36562,1704.6895 657.10746,1695.8907 672.84988,1694.7333 C 688.5923,1693.5755 705.49118,1694.2702 715.67717,1696.3543 C 725.86337,1698.4378 737.67033,1703.7634 737.67033,1703.7634 C 737.67033,1703.7634 738.59679,1703.7634 739.29071,1702.3742 C 739.98521,1700.985 737.20719,1699.8272 737.20719,1699.8272 C 737.20719,1699.8272 722.85398,1694.5015 717.76069,1693.8072 C 712.66798,1693.1123 705.2602,1691.7229 699.00966,1691.492 C 692.75854,1691.2602 680.48883,1690.3341 674.47045,1691.492 C 668.45128,1692.6494 656.64452,1694.2702 649.46752,1697.5119 C 642.2913,1700.7533 639.51348,1701.6797 639.51348,1701.6797 C 639.51348,1701.6797 637.66134,1701.6795 638.58721,1703.5317 L 638.58721,1703.5317 z"
     id="path39"
     style="fill:#bca728;stroke:#000000;stroke-width:0.46142894;stroke-miterlimit:3.86369991" /><path
     stroke-miterlimit="3.8637"
     d="M 644.37481,1715.8035 C 644.83756,1717.4239 650.16241,1717.4239 650.16241,1717.4239 L 708.26919,1715.8035 L 731.88214,1718.466 C 731.88214,1718.466 733.27154,1718.1188 733.50271,1716.7296 C 733.73428,1715.3408 732.11429,1713.9506 732.11429,1713.9506 C 732.11429,1713.9506 723.31672,1708.6257 709.6584,1707.0048 C 695.99949,1705.3844 689.74895,1704.4577 677.47925,1705.8473 C 665.20955,1707.2365 659.88547,1708.8573 656.41276,1709.7834 C 652.94023,1710.7093 643.91207,1714.1828 644.37481,1715.8035 L 644.37481,1715.8035 z"
     id="path41"
     style="fill:#bca728;stroke:#000000;stroke-width:0.46142894;stroke-miterlimit:3.86369991" /><path
     stroke-miterlimit="3.8637"
     d="M 666.59914,1668.801 C 666.59914,1666.6271 667.94642,1664.8647 669.60833,1664.8647 C 671.27083,1664.8647 672.61831,1666.6273 672.61831,1668.801 C 672.61831,1670.9746 671.27083,1672.737 669.60833,1672.737 C 667.94642,1672.737 666.59914,1670.9744 666.59914,1668.801 L 666.59914,1668.801 z"
     id="path43"
     style="fill:#00acec;stroke:#000000;stroke-width:0.46142894;stroke-miterlimit:3.86369991" /><path
     stroke-miterlimit="3.8637"
     d="M 704.79667,1669.4957 C 704.79667,1667.1939 706.09184,1665.3279 707.69047,1665.3279 C 709.28891,1665.3279 710.58427,1667.1939 710.58427,1669.4957 C 710.58427,1671.797 709.28911,1673.6631 707.69047,1673.6631 C 706.09184,1673.6631 704.79667,1671.797 704.79667,1669.4957 L 704.79667,1669.4957 z"
     id="path45"
     style="fill:#00acec;stroke:#000000;stroke-width:0.46142894;stroke-miterlimit:3.86369991" /><path
     stroke-miterlimit="3.8637"
     d="M 685.1186,1647.268 C 685.1186,1645.7332 687.08829,1644.4894 689.51778,1644.4894 C 691.94727,1644.4894 693.91617,1645.7332 693.91617,1647.268 C 693.91617,1648.8024 691.94727,1650.0462 689.51778,1650.0462 C 687.08829,1650.046 685.1186,1648.8024 685.1186,1647.268 L 685.1186,1647.268 z"
     id="path47"
     style="fill:#e6e7e8;stroke:#000000;stroke-width:0.46142894;stroke-miterlimit:3.86369991" /><path
     stroke-miterlimit="3.8637"
     d="M 740.82606,1675.0112 C 741.8495,1673.1657 743.63033,1672.1973 744.80442,1672.8479 C 745.97832,1673.4991 746.10116,1675.5225 745.07831,1677.3676 C 744.05565,1679.213 742.27423,1680.182 741.09994,1679.5308 C 739.92605,1678.8798 739.8036,1676.8562 740.82606,1675.0112 L 740.82606,1675.0112 z"
     id="path49"
     style="fill:#e6e7e8;stroke:#000000;stroke-width:0.46142894;stroke-miterlimit:3.86369991" /><path
     stroke-miterlimit="3.8637"
     d="M 767.76557,1669.9584 C 767.76557,1668.168 768.95808,1666.7171 770.42741,1666.7171 C 771.89812,1666.7171 773.08984,1668.168 773.08984,1669.9584 C 773.08984,1671.7488 771.89812,1673.1998 770.42741,1673.1998 C 768.95808,1673.1998 767.76557,1671.7488 767.76557,1669.9584 L 767.76557,1669.9584 z"
     id="path51"
     style="fill:#e6e7e8;stroke:#000000;stroke-width:0.46142894;stroke-miterlimit:3.86369991" /><path
     stroke-miterlimit="3.8637"
     d="M 633.14834,1677.0653 C 632.12568,1675.2202 632.20287,1673.2215 633.32172,1672.6018 C 634.43919,1671.9818 636.17516,1672.9754 637.19781,1674.8209 C 638.22125,1676.666 638.14328,1678.6647 637.02522,1679.2844 C 635.90696,1679.9042 634.17099,1678.9108 633.14834,1677.0653 L 633.14834,1677.0653 z"
     id="path53"
     style="fill:#e6e7e8;stroke:#000000;stroke-width:0.46142894;stroke-miterlimit:3.86369991" /><path
     stroke-miterlimit="3.8637"
     d="M 619.11328,1680.0257 C 620.16748,1678.5736 622.72646,1678.6341 624.82741,1680.1605 C 626.92856,1681.6876 627.77724,1684.102 626.72207,1685.5541 C 625.6663,1687.0066 623.10829,1686.9458 621.00715,1685.4189 C 618.9062,1683.8924 618.05752,1681.4776 619.11328,1680.0257 L 619.11328,1680.0257 z"
     id="path55"
     style="fill:#00acec;stroke:#000000;stroke-width:0.46142894;stroke-miterlimit:3.86369991" /><path
     stroke-miterlimit="3.8637"
     d="M 758.77992,1681.1829 C 757.72416,1679.7312 755.16615,1679.7914 753.06501,1681.3177 C 750.96308,1682.845 750.11518,1685.2596 751.17035,1686.7113 C 752.22533,1688.1638 754.78393,1688.1031 756.88527,1686.5769 C 758.98641,1685.05 759.8349,1682.635 758.77992,1681.1829 L 758.77992,1681.1829 z"
     id="path57"
     style="fill:#00acec;stroke:#000000;stroke-width:0.46142894;stroke-miterlimit:3.86369991" /><polygon
     transform="matrix(0.1959109,0,0,0.1959109,258.51184,1543.2358)"
     stroke-miterlimit="3.8637"
     points="1961.312,838.3 1954.224,850.118 1968.969,855.413 1982.582,841.846 1961.312,838.3 "
     id="polygon59"
     style="fill:#cc2229;stroke:#000000;stroke-width:2.35529995;stroke-miterlimit:3.86369991" /><polygon
     transform="matrix(0.1959109,0,0,0.1959109,258.51184,1543.2358)"
     stroke-miterlimit="3.8637"
     points="2029.85,818.208 2058.208,794.571 2093.66,804.025 2065.299,828.844 2029.85,818.208 "
     id="polygon61"
     style="fill:#319c53;stroke:#000000;stroke-width:2.35529995;stroke-miterlimit:3.86369991" /><polygon
     transform="matrix(0.1959109,0,0,0.1959109,258.51184,1543.2358)"
     stroke-miterlimit="3.8637"
     points="2157.47,794.571 2197.644,817.026 2239.006,800.481 2197.644,774.479 2157.47,794.571 "
     id="polygon63"
     style="fill:#cc2229;stroke:#000000;stroke-width:2.35529995;stroke-miterlimit:3.86369991" /><polygon
     transform="matrix(0.1959109,0,0,0.1959109,258.51184,1543.2358)"
     stroke-miterlimit="3.8637"
     points="2301.631,804.025 2331.174,828.844 2367.808,818.208 2337.084,789.844 2301.631,804.025 "
     id="polygon65"
     style="fill:#319c53;stroke:#000000;stroke-width:2.35529995;stroke-miterlimit:3.86369991" /><polygon
     transform="matrix(0.1959109,0,0,0.1959109,258.51184,1543.2358)"
     stroke-miterlimit="3.8637"
     points="2418.616,835.936 2423.346,850.118 2441.071,850.118 2435.161,835.936 2418.616,835.936 "
     id="polygon67"
     style="fill:#cc2229;stroke:#000000;stroke-width:2.35529995;stroke-miterlimit:3.86369991" /><path
     stroke-miterlimit="3.8637"
     d="M 701.32455,1699.9428 C 701.32455,1698.7279 702.36052,1697.7429 703.63864,1697.7429 C 704.91755,1697.7429 705.95431,1698.7281 705.95431,1699.9428 C 705.95431,1701.158 704.91755,1702.1425 703.63864,1702.1425 C 702.36052,1702.1423 701.32455,1701.1578 701.32455,1699.9428 L 701.32455,1699.9428 z"
     id="path69"
     style="fill:#00acec;stroke:#000000;stroke-width:0.46142894;stroke-miterlimit:3.86369991" /><path
     stroke-miterlimit="3.8637"
     d="M 671.92322,1700.1745 C 671.92322,1698.9597 672.95998,1697.9748 674.2381,1697.9748 C 675.5172,1697.9748 676.55377,1698.9597 676.55377,1700.1745 C 676.55377,1701.3894 675.51701,1702.3742 674.2381,1702.3742 C 672.95998,1702.374 671.92322,1701.3892 671.92322,1700.1745 L 671.92322,1700.1745 z"
     id="path71"
     style="fill:#00acec;stroke:#000000;stroke-width:0.46142894;stroke-miterlimit:3.86369991" /><path
     stroke-miterlimit="3.8637"
     d="M 648.77321,1705.1526 C 648.77321,1704.0017 649.6027,1703.0683 650.62535,1703.0683 C 651.64801,1703.0683 652.47749,1704.0019 652.47749,1705.1526 C 652.47749,1706.3034 651.64801,1707.2365 650.62535,1707.2365 C 649.6027,1707.2365 648.77321,1706.3034 648.77321,1705.1526 L 648.77321,1705.1526 z"
     id="path73"
     style="fill:#00acec;stroke:#000000;stroke-width:0.46142894;stroke-miterlimit:3.86369991" /><path
     stroke-miterlimit="3.8637"
     d="M 724.70612,1705.3844 C 724.70612,1704.2328 725.53541,1703.3001 726.55826,1703.3001 C 727.58092,1703.3001 728.41021,1704.2328 728.41021,1705.3844 C 728.41021,1706.5352 727.58092,1707.4679 726.55826,1707.4679 C 725.53541,1707.4679 724.70612,1706.5352 724.70612,1705.3844 L 724.70612,1705.3844 z"
     id="path75"
     style="fill:#00acec;stroke:#000000;stroke-width:0.46142894;stroke-miterlimit:3.86369991" /><polygon
     transform="matrix(0.1959109,0,0,0.1959109,258.51184,1543.2358)"
     points="2101.91,1505.419 2101.91,1426.397 2122.171,1402.083 2122.171,1297.731 2101.91,1284.56 2101.91,1264.298 2114.067,1258.219 2114.067,1207.564 2150.536,1207.564 2150.536,1243.022 2172.826,1243.022 2172.826,1207.564 2213.683,1207.564 2213.683,1243.022 2235.973,1243.022 2235.973,1207.564 2272.441,1207.564 2272.441,1258.219 2284.599,1264.298 2284.599,1284.56 2264.338,1297.731 2264.338,1402.083 2284.599,1426.397 2284.599,1505.419 2101.91,1505.419 "
     id="polygon77"
     style="fill:#bca728" /><g
     transform="matrix(0.1959109,0,0,0.1959109,258.51184,1543.2358)"
     id="g79">
		<defs
   id="defs81">
			<polygon
   id="XMLID_1_"
   points="2101.91,1505.419 2101.91,1426.397 2122.171,1402.083 2122.171,1297.731 2101.91,1284.56 2101.91,1264.298 2114.067,1258.219 2114.067,1207.564 2150.536,1207.564 2150.536,1243.022 2172.826,1243.022 2172.826,1207.564 2213.683,1207.564 2213.683,1243.022 2235.973,1243.022 2235.973,1207.564 2272.441,1207.564 2272.441,1258.219 2284.599,1264.298 2284.599,1284.56 2264.338,1297.731 2264.338,1402.083 2284.599,1426.397 2284.599,1505.419 2101.91,1505.419 " />
		</defs>
		<clipPath
   id="XMLID_7_">
			<use
   xlink:href="#XMLID_1_"
   id="use85"
   x="0"
   y="0"
   width="4394.7012"
   height="2552.1809" />
		</clipPath>
		<path
   clip-path="url(#XMLID_7_)"
   stroke-miterlimit="3.8637"
   d="M 2091.777,1480.094 L 2298.447,1480.094 M 2093.807,1455.778 L 2297.436,1455.778 M 2094.819,1427.41 L 2298.447,1427.41 M 2114.067,1400.056 L 2276.158,1400.056 M 2112.039,1375.74 L 2276.158,1375.74 M 2113.052,1351.428 L 2279.199,1351.428 M 2113.052,1322.046 L 2276.158,1322.046 M 2105.96,1296.717 L 2274.133,1296.717 M 2196.129,1295.704 L 2196.129,1321.032 M 2136.354,1351.428 L 2136.354,1375.74 M 2197.138,1351.428 L 2197.138,1374.728 M 2252.859,1351.428 L 2252.859,1374.728 M 2232.598,1374.728 L 2232.598,1399.043 M 2162.694,1374.728 L 2162.694,1399.043 M 2119.13,1427.41 L 2139.396,1400.056 M 2244.755,1399.043 L 2268.058,1426.397 M 2140.408,1427.41 L 2140.408,1453.752 M 2120.146,1454.765 L 2120.146,1479.079 M 2144.458,1479.079 L 2144.458,1505.419 M 2253.875,1480.094 L 2253.875,1505.419 M 2253.875,1454.765 L 2253.875,1427.411 M 2101.91,1257.207 L 2290.344,1257.207 M 2094.819,1282.534 L 2294.398,1282.534 M 2094.819,1265.311 L 2289.328,1265.311 M 2119.13,1265.311 L 2119.13,1282.535 L 2130.276,1295.705 M 2140.408,1264.298 L 2140.408,1281.522 L 2151.553,1295.705 M 2175.868,1265.311 L 2175.868,1281.522 L 2196.129,1296.717 M 2273.12,1265.311 L 2273.12,1282.535 L 2261.974,1295.705 M 2251.847,1264.298 L 2251.847,1281.522 L 2240.701,1295.705 M 2216.391,1265.311 L 2216.391,1281.522 L 2196.129,1296.717 M 2104.951,1235.931 L 2282.236,1235.931 M 2152.565,1243.022 L 2152.565,1256.192 M 2229.561,1243.022 L 2229.561,1256.192"
   id="path87"
   style="fill:none;stroke:#000000;stroke-width:4.05210018;stroke-miterlimit:3.86369991" />
		<path
   clip-path="url(#XMLID_7_)"
   stroke-miterlimit="3.8637"
   d="M 2161.682,1441.609 C 2161.682,1422.576 2176.877,1407.148 2195.62,1407.148 L 2195.62,1407.148 C 2214.366,1407.148 2229.561,1422.576 2229.561,1441.609 L 2229.561,1543.903 C 2229.561,1562.936 2214.366,1578.366 2195.62,1578.366 L 2195.62,1578.366 C 2176.877,1578.366 2161.682,1562.936 2161.682,1543.903 L 2161.682,1441.609 L 2161.682,1441.609 z"
   id="path89"
   style="stroke:#000000;stroke-width:4.05210018;stroke-miterlimit:3.86369991" />
		
			<path
   clip-path="url(#XMLID_7_)"
   clip-rule="evenodd"
   stroke-miterlimit="3.8637"
   d="M 2152.565,1351.426 L 2152.565,1336.915 C 2152.565,1324.227 2156.874,1313.94 2162.187,1313.94 L 2162.187,1313.94 C 2167.501,1313.94 2171.813,1324.226 2171.813,1336.915 L 2171.813,1351.426 L 2152.565,1351.426 L 2152.565,1351.426 z"
   id="path91"
   style="fill-rule:evenodd;stroke:#000000;stroke-width:4.05210018;stroke-miterlimit:3.86369991" />
		
			<path
   clip-path="url(#XMLID_7_)"
   clip-rule="evenodd"
   stroke-miterlimit="3.8637"
   d="M 2215.741,1351.426 L 2215.741,1336.915 C 2215.741,1324.227 2220.051,1313.94 2225.364,1313.94 L 2225.364,1313.94 C 2230.677,1313.94 2234.99,1324.226 2234.99,1336.915 L 2234.99,1351.426 L 2215.741,1351.426 L 2215.741,1351.426 z"
   id="path93"
   style="fill-rule:evenodd;stroke:#000000;stroke-width:4.05210018;stroke-miterlimit:3.86369991" />
	</g><polygon
     transform="matrix(0.1959109,0,0,0.1959109,258.51184,1543.2358)"
     stroke-miterlimit="3.8637"
     points="2101.91,1505.419 2101.91,1426.397 2122.171,1402.083 2122.171,1297.731 2101.91,1284.56 2101.91,1264.298 2114.067,1258.219 2114.067,1207.564 2150.536,1207.564 2150.536,1243.022 2172.826,1243.022 2172.826,1207.564 2213.683,1207.564 2213.683,1243.022 2235.973,1243.022 2235.973,1207.564 2272.441,1207.564 2272.441,1258.219 2284.599,1264.298 2284.599,1284.56 2264.338,1297.731 2264.338,1402.083 2284.599,1426.397 2284.599,1505.419 2101.91,1505.419 "
     id="polygon95"
     style="fill:none;stroke:#000000;stroke-width:4.71070004;stroke-miterlimit:3.86369991" /><path
     stroke-miterlimit="3.8637"
     d="M 646.99826,1765.8496 C 648.99812,1763.4549 650.2206,1762.1645 652.55449,1760.0939 C 655.03335,1757.895 656.50914,1756.7136 659.30322,1754.9332 C 659.00426,1757.5666 659.26639,1759.1653 660.09666,1761.6814 C 660.97905,1764.3542 661.92745,1765.7955 663.86775,1767.8345 M 667.63943,1768.4301 L 674.45282,1761.8802 C 674.30138,1763.3576 674.37269,1764.2968 674.98256,1765.6515 C 675.70175,1767.2484 676.57884,1768.07 678.15847,1768.827 M 683.12031,1760.0939 L 674.58565,1761.2848 L 659.69994,1753.3457 L 646.60075,1752.3532 M 728.372,1765.8496 C 726.36999,1763.4561 725.14986,1762.1629 722.81519,1760.0939 C 720.33496,1757.8969 718.8619,1756.7115 716.06645,1754.9332 C 716.36619,1757.5662 716.10622,1759.1659 715.27242,1761.6814 C 714.38769,1764.3534 713.43047,1765.7849 711.50192,1767.8345 M 707.73103,1768.4301 L 701.24677,1761.8802 C 701.25265,1760.3715 701.07711,1764.3097 700.38711,1765.6515 C 699.58642,1767.2086 698.75909,1768.0065 697.2112,1768.827 M 692.25015,1760.0939 L 700.78403,1761.2848 L 715.66973,1753.3457 L 728.76872,1752.3532 M 684.90643,1753.9411 C 686.39476,1754.9332 685.79978,1756.6204 687.28812,1757.3151 L 688.08156,1757.3151 C 689.57087,1756.6206 688.97511,1754.9334 690.46325,1753.9411 M 695.42528,1769.4226 C 695.1798,1768.2873 694.69708,1767.5191 693.63935,1767.0409 C 692.64961,1766.5926 691.89653,1766.5174 690.86075,1766.842 C 691.40362,1766.0508 691.53958,1764.9873 691.85245,1763.8648 C 692.35202,1762.0755 692.35202,1760.8905 691.85245,1759.1016 M 679.9444,1769.4226 C 680.19928,1768.2898 680.67906,1767.5328 681.7311,1767.0409 C 682.71419,1766.5805 683.47236,1766.5174 684.50893,1766.842 C 683.96547,1766.0511 683.82735,1764.9877 683.51722,1763.8648 C 683.02216,1762.0743 683.02216,1760.892 683.51722,1759.1016 M 692.64667,1771.2089 C 692.13907,1770.6345 691.82678,1770.332 691.25747,1769.8193 C 690.60117,1769.229 690.20092,1768.9255 689.47076,1768.4301 C 689.03368,1768.7857 688.25102,1768.9077 687.68484,1769.2239 C 687.09769,1768.896 686.34774,1768.8004 685.89813,1768.4301 C 685.16993,1768.9285 684.76753,1769.2278 684.11221,1769.8193 C 683.54348,1770.3328 683.23276,1770.637 682.72281,1771.2089"
     id="path97"
     style="fill:none;stroke:#000000;stroke-width:1.19088364;stroke-miterlimit:3.86369991" /><polygon
     transform="matrix(0.1959109,0,0,0.1959109,258.51184,1543.2358)"
     points="1895.739,1828.106 1895.739,1749.085 1916,1724.771 1916,1620.417 1895.739,1607.247 1895.739,1586.985 1907.896,1580.907 1907.896,1530.25 1944.365,1530.25 1944.365,1565.71 1966.655,1565.71 1966.655,1530.25 2007.512,1530.25 2007.512,1565.71 2029.802,1565.71 2029.802,1530.25 2066.271,1530.25 2066.271,1580.907 2078.428,1586.985 2078.428,1607.247 2058.167,1620.417 2058.167,1724.771 2078.428,1749.085 2078.428,1828.106 1895.739,1828.106 "
     id="polygon99"
     style="fill:#bca728" /><g
     transform="matrix(0.1959109,0,0,0.1959109,258.51184,1543.2358)"
     id="g101">
		<defs
   id="defs103">
			<polygon
   id="XMLID_3_"
   points="1895.739,1828.106 1895.739,1749.085 1916,1724.771 1916,1620.417 1895.739,1607.247 1895.739,1586.985 1907.896,1580.907 1907.896,1530.25 1944.365,1530.25 1944.365,1565.71 1966.655,1565.71 1966.655,1530.25 2007.512,1530.25 2007.512,1565.71 2029.802,1565.71 2029.802,1530.25 2066.271,1530.25 2066.271,1580.907 2078.428,1586.985 2078.428,1607.247 2058.167,1620.417 2058.167,1724.771 2078.428,1749.085 2078.428,1828.106 1895.739,1828.106 " />
		</defs>
		<clipPath
   id="XMLID_8_">
			<use
   xlink:href="#XMLID_3_"
   id="use107"
   x="0"
   y="0"
   width="4394.7012"
   height="2552.1809" />
		</clipPath>
		<path
   clip-path="url(#XMLID_8_)"
   stroke-miterlimit="3.8637"
   d="M 1885.606,1802.779 L 2092.276,1802.779 M 1887.635,1778.464 L 2091.263,1778.464 M 1888.647,1750.098 L 2092.276,1750.098 M 1907.896,1722.743 L 2069.986,1722.743 M 1905.872,1698.428 L 2069.987,1698.428 M 1906.88,1674.113 L 2073.027,1674.113 M 1906.88,1644.731 L 2069.986,1644.731 M 1899.789,1619.404 L 2067.961,1619.404 M 1989.954,1618.392 L 1989.954,1643.72 M 1930.183,1674.113 L 1930.183,1698.427 M 1990.97,1674.113 L 1990.97,1697.416 M 2046.688,1674.113 L 2046.688,1697.416 M 2026.427,1697.416 L 2026.427,1721.73 M 1956.522,1697.416 L 1956.522,1721.73 M 1912.963,1750.098 L 1933.224,1722.744 M 2038.584,1721.73 L 2061.887,1749.084 M 1934.236,1750.098 L 1934.236,1776.44 M 1913.975,1777.452 L 1913.975,1801.764 M 1938.29,1801.765 L 1938.29,1828.107 M 2047.7,1802.779 L 2047.7,1828.106 M 2047.7,1777.452 L 2047.7,1750.098 M 1895.739,1579.893 L 2084.173,1579.893 M 1888.647,1605.222 L 2088.226,1605.222 M 1888.647,1587.998 L 2083.16,1587.998 M 1912.963,1587.998 L 1912.963,1605.222 L 1924.104,1618.392 M 1934.236,1586.985 L 1934.236,1604.207 L 1945.381,1618.392 M 1969.696,1587.998 L 1969.696,1604.207 L 1989.954,1619.404 M 2066.949,1587.998 L 2066.949,1605.222 L 2055.807,1618.392 M 2045.675,1586.985 L 2045.675,1604.207 L 2034.534,1618.392 M 2010.219,1587.998 L 2010.219,1604.207 L 1989.954,1619.404 M 1898.78,1558.617 L 2076.069,1558.617 M 1946.394,1565.71 L 1946.394,1578.88 M 2023.389,1565.71 L 2023.389,1578.88"
   id="path109"
   style="fill:none;stroke:#000000;stroke-width:4.05210018;stroke-miterlimit:3.86369991" />
		<path
   clip-path="url(#XMLID_8_)"
   stroke-miterlimit="3.8637"
   d="M 1955.51,1764.295 C 1955.51,1745.264 1970.705,1729.836 1989.448,1729.836 L 1989.448,1729.836 C 2008.194,1729.836 2023.389,1745.264 2023.389,1764.295 L 2023.389,1866.591 C 2023.389,1885.624 2008.194,1901.052 1989.448,1901.052 L 1989.448,1901.052 C 1970.705,1901.052 1955.51,1885.624 1955.51,1866.591 L 1955.51,1764.295 L 1955.51,1764.295 z"
   id="path111"
   style="stroke:#000000;stroke-width:4.05210018;stroke-miterlimit:3.86369991" />
		
			<path
   clip-path="url(#XMLID_8_)"
   clip-rule="evenodd"
   stroke-miterlimit="3.8637"
   d="M 1946.394,1674.113 L 1946.394,1659.602 C 1946.394,1646.912 1950.703,1636.625 1956.017,1636.625 L 1956.017,1636.625 C 1961.33,1636.625 1965.643,1646.911 1965.643,1659.602 L 1965.643,1674.113 L 1946.394,1674.113 L 1946.394,1674.113 z"
   id="path113"
   style="fill-rule:evenodd;stroke:#000000;stroke-width:4.05210018;stroke-miterlimit:3.86369991" />
		
			<path
   clip-path="url(#XMLID_8_)"
   clip-rule="evenodd"
   stroke-miterlimit="3.8637"
   d="M 2009.57,1674.113 L 2009.57,1659.602 C 2009.57,1646.912 2013.879,1636.625 2019.193,1636.625 L 2019.193,1636.625 C 2024.51,1636.625 2028.819,1646.911 2028.819,1659.602 L 2028.819,1674.113 L 2009.57,1674.113 L 2009.57,1674.113 z"
   id="path115"
   style="fill-rule:evenodd;stroke:#000000;stroke-width:4.05210018;stroke-miterlimit:3.86369991" />
	</g><polygon
     transform="matrix(0.1959109,0,0,0.1959109,258.51184,1543.2358)"
     stroke-miterlimit="3.8637"
     points="1895.739,1828.106 1895.739,1749.085 1916,1724.771 1916,1620.417 1895.739,1607.247 1895.739,1586.985 1907.896,1580.907 1907.896,1530.25 1944.365,1530.25 1944.365,1565.71 1966.655,1565.71 1966.655,1530.25 2007.512,1530.25 2007.512,1565.71 2029.802,1565.71 2029.802,1530.25 2066.271,1530.25 2066.271,1580.907 2078.428,1586.985 2078.428,1607.247 2058.167,1620.417 2058.167,1724.771 2078.428,1749.085 2078.428,1828.106 1895.739,1828.106 "
     id="polygon117"
     style="fill:none;stroke:#000000;stroke-width:4.71070004;stroke-miterlimit:3.86369991" /><polygon
     transform="matrix(0.1959109,0,0,0.1959109,258.51184,1543.2358)"
     points="2316.241,1828.106 2316.241,1749.085 2336.503,1724.771 2336.503,1620.417 2316.241,1607.247 2316.241,1586.985 2328.398,1580.907 2328.398,1530.25 2364.867,1530.25 2364.867,1565.71 2387.158,1565.71 2387.158,1530.25 2428.014,1530.25 2428.014,1565.71 2450.304,1565.71 2450.304,1530.25 2486.772,1530.25 2486.772,1580.907 2498.934,1586.985 2498.934,1607.247 2478.669,1620.417 2478.669,1724.771 2498.934,1749.085 2498.934,1828.106 2316.241,1828.106 "
     id="polygon119"
     style="fill:#bca728" /><g
     transform="matrix(0.1959109,0,0,0.1959109,258.51184,1543.2358)"
     id="g121">
		<defs
   id="defs123">
			<polygon
   id="XMLID_5_"
   points="2316.241,1828.106 2316.241,1749.085 2336.503,1724.771 2336.503,1620.417 2316.241,1607.247 2316.241,1586.985 2328.398,1580.907 2328.398,1530.25 2364.867,1530.25 2364.867,1565.71 2387.158,1565.71 2387.158,1530.25 2428.014,1530.25 2428.014,1565.71 2450.304,1565.71 2450.304,1530.25 2486.772,1530.25 2486.772,1580.907 2498.934,1586.985 2498.934,1607.247 2478.669,1620.417 2478.669,1724.771 2498.934,1749.085 2498.934,1828.106 2316.241,1828.106 " />
		</defs>
		<clipPath
   id="XMLID_9_">
			<use
   xlink:href="#XMLID_5_"
   id="use127"
   x="0"
   y="0"
   width="4394.7012"
   height="2552.1809" />
		</clipPath>
		<path
   clip-path="url(#XMLID_9_)"
   stroke-miterlimit="3.8637"
   d="M 2306.113,1802.779 L 2512.779,1802.779 M 2308.138,1778.464 L 2511.767,1778.464 M 2309.15,1750.098 L 2512.779,1750.098 M 2328.398,1722.743 L 2490.492,1722.743 M 2326.374,1698.428 L 2490.492,1698.428 M 2327.383,1674.113 L 2493.53,1674.113 M 2327.383,1644.731 L 2490.492,1644.731 M 2320.291,1619.404 L 2488.464,1619.404 M 2410.46,1618.392 L 2410.46,1643.72 M 2350.686,1674.113 L 2350.686,1698.427 M 2411.473,1674.113 L 2411.473,1697.416 M 2467.19,1674.113 L 2467.19,1697.416 M 2446.929,1697.416 L 2446.929,1721.73 M 2377.025,1697.416 L 2377.025,1721.73 M 2333.465,1750.098 L 2353.727,1722.744 M 2459.086,1721.73 L 2482.389,1749.084 M 2354.739,1750.098 L 2354.739,1776.44 M 2334.478,1777.452 L 2334.478,1801.764 M 2358.789,1801.765 L 2358.789,1828.107 M 2468.207,1802.779 L 2468.207,1828.106 M 2468.207,1777.452 L 2468.207,1750.098 M 2316.241,1579.893 L 2504.676,1579.893 M 2309.15,1605.222 L 2508.728,1605.222 M 2309.15,1587.998 L 2503.662,1587.998 M 2333.465,1587.998 L 2333.465,1605.222 L 2344.607,1618.392 M 2354.739,1586.985 L 2354.739,1604.207 L 2365.884,1618.392 M 2390.199,1587.998 L 2390.199,1604.207 L 2410.46,1619.404 M 2487.451,1587.998 L 2487.451,1605.222 L 2476.31,1618.392 M 2466.178,1586.985 L 2466.178,1604.207 L 2455.033,1618.392 M 2430.722,1587.998 L 2430.722,1604.207 L 2410.46,1619.404 M 2319.283,1558.617 L 2496.571,1558.617 M 2366.896,1565.71 L 2366.896,1578.88 M 2443.892,1565.71 L 2443.892,1578.88"
   id="path129"
   style="fill:none;stroke:#000000;stroke-width:4.05210018;stroke-miterlimit:3.86369991" />
		<path
   clip-path="url(#XMLID_9_)"
   stroke-miterlimit="3.8637"
   d="M 2376.013,1764.295 C 2376.013,1745.264 2391.208,1729.836 2409.951,1729.836 L 2409.951,1729.836 C 2428.697,1729.836 2443.892,1745.264 2443.892,1764.295 L 2443.892,1866.591 C 2443.892,1885.624 2428.697,1901.052 2409.951,1901.052 L 2409.951,1901.052 C 2391.209,1901.052 2376.013,1885.624 2376.013,1866.591 L 2376.013,1764.295 L 2376.013,1764.295 z"
   id="path131"
   style="stroke:#000000;stroke-width:4.05210018;stroke-miterlimit:3.86369991" />
		
			<path
   clip-path="url(#XMLID_9_)"
   clip-rule="evenodd"
   stroke-miterlimit="3.8637"
   d="M 2366.896,1674.113 L 2366.896,1659.602 C 2366.896,1646.912 2371.205,1636.625 2376.519,1636.625 L 2376.519,1636.625 C 2381.832,1636.625 2386.145,1646.911 2386.145,1659.602 L 2386.145,1674.113 L 2366.896,1674.113 L 2366.896,1674.113 z"
   id="path133"
   style="fill-rule:evenodd;stroke:#000000;stroke-width:4.05210018;stroke-miterlimit:3.86369991" />
		
			<path
   clip-path="url(#XMLID_9_)"
   clip-rule="evenodd"
   stroke-miterlimit="3.8637"
   d="M 2430.072,1674.113 L 2430.072,1659.602 C 2430.072,1646.912 2434.381,1636.625 2439.695,1636.625 L 2439.695,1636.625 C 2445.012,1636.625 2449.321,1646.911 2449.321,1659.602 L 2449.321,1674.113 L 2430.072,1674.113 L 2430.072,1674.113 z"
   id="path135"
   style="fill-rule:evenodd;stroke:#000000;stroke-width:4.05210018;stroke-miterlimit:3.86369991" />
	</g><polygon
     transform="matrix(0.1959109,0,0,0.1959109,258.51184,1543.2358)"
     stroke-miterlimit="3.8637"
     points="2316.241,1828.106 2316.241,1749.085 2336.503,1724.771 2336.503,1620.417 2316.241,1607.247 2316.241,1586.985 2328.398,1580.907 2328.398,1530.25 2364.867,1530.25 2364.867,1565.71 2387.158,1565.71 2387.158,1530.25 2428.014,1530.25 2428.014,1565.71 2450.304,1565.71 2450.304,1530.25 2486.772,1530.25 2486.772,1580.907 2498.934,1586.985 2498.934,1607.247 2478.669,1620.417 2478.669,1724.771 2498.934,1749.085 2498.934,1828.106 2316.241,1828.106 "
     id="polygon137"
     style="fill:none;stroke:#000000;stroke-width:4.71070004;stroke-miterlimit:3.86369991" /><path
     stroke-miterlimit="3.8637"
     d="M 645.99539,1718.466 C 645.99539,1714.4376 665.10552,1708.6257 688.82347,1708.6257 C 712.54064,1708.6257 731.88214,1714.4376 731.88214,1718.466 C 731.88214,1722.4941 712.65584,1725.7597 688.93867,1725.7597 C 665.2215,1725.7597 645.99539,1722.4941 645.99539,1718.466 L 645.99539,1718.466 z"
     id="path139"
     style="fill:#cc2229;stroke:#000000;stroke-width:0.46142894;stroke-miterlimit:3.86369991" /><path
     stroke-miterlimit="3.8637"
     d="M 604.90327,1669.9584 C 604.90327,1668.168 606.095,1666.7171 607.5657,1666.7171 C 609.03562,1666.7171 610.22813,1668.168 610.22813,1669.9584 C 610.22813,1671.7488 609.03582,1673.1998 607.5657,1673.1998 C 606.095,1673.1998 604.90327,1671.7488 604.90327,1669.9584 L 604.90327,1669.9584 z"
     id="path141"
     style="fill:#e6e7e8;stroke:#000000;stroke-width:0.46142894;stroke-miterlimit:3.86369991" /></g>
</svg>